<!DOCTYPE svg PUBLIC "-//W3C//DTD SVG 1.1//EN" "http://www.w3.org/Graphics/SVG/1.1/DTD/svg11.dtd">
<svg xmlns="http://www.w3.org/2000/svg" xmlns:xlink="http://www.w3.org/1999/xlink" width="104px" height="89px" version="1.1" content="%3CmxGraphModel%20dx%3D%221434%22%20dy%3D%22769%22%20grid%3D%221%22%20gridSize%3D%2210%22%20guides%3D%221%22%20tooltips%3D%221%22%20connect%3D%221%22%20arrows%3D%221%22%20fold%3D%221%22%20page%3D%221%22%20pageScale%3D%221%22%20pageWidth%3D%221169%22%20pageHeight%3D%22826%22%20background%3D%22%23ffffff%22%20math%3D%220%22%3E%3Croot%3E%3CmxCell%20id%3D%220%22%2F%3E%3CmxCell%20id%3D%221%22%20parent%3D%220%22%2F%3E%3CmxCell%20id%3D%222%22%20value%3D%22%22%20style%3D%22fontColor%3D%230066CC%3BverticalAlign%3Dtop%3BverticalLabelPosition%3Dbottom%3BlabelPosition%3Dcenter%3Balign%3Dcenter%3Bhtml%3D1%3BfillColor%3D%23CCCCCC%3BstrokeColor%3D%236881B3%3BgradientColor%3Dnone%3BgradientDirection%3Dnorth%3BstrokeWidth%3D2%3Bshape%3Dmxgraph.networks.wireless_hub%3B%22%20vertex%3D%221%22%20parent%3D%221%22%3E%3CmxGeometry%20x%3D%22354%22%20y%3D%2240%22%20width%3D%22100%22%20height%3D%2285%22%20as%3D%22geometry%22%2F%3E%3C%2FmxCell%3E%3C%2Froot%3E%3C%2FmxGraphModel%3E"><defs/><g transform="translate(0.5,0.5)"><rect x="2" y="58.2" width="100" height="24.82" rx="4.96" ry="4.96" fill="#cccccc" stroke="#6881b3" stroke-width="1.99" pointer-events="none"/><rect x="12" y="83.03" width="80" height="3.97" fill="#cccccc" stroke="#6881b3" stroke-width="1.99" pointer-events="none"/><path d="M 69 58.2 L 69.5 13.52 C 69.78 13.1 70.25 12.85 70.75 12.85 C 71.25 12.85 71.72 13.1 72 13.52 L 72.5 58.2 Z" fill="#cccccc" stroke="#6881b3" stroke-width="1.99" stroke-miterlimit="10" pointer-events="none"/><ellipse cx="90" cy="71" rx="8" ry="7.94392523364486" fill="#ffffff" stroke="none" pointer-events="none"/><ellipse cx="77" cy="63" rx="2" ry="1.985981308411215" fill="#ffffff" stroke="none" pointer-events="none"/><ellipse cx="77" cy="78" rx="2" ry="1.985981308411215" fill="#ffffff" stroke="none" pointer-events="none"/><ellipse cx="77" cy="71" rx="2" ry="1.985981308411215" fill="#ffffff" stroke="none" pointer-events="none"/><ellipse cx="68" cy="75" rx="2" ry="1.985981308411215" fill="#ffffff" stroke="none" pointer-events="none"/><ellipse cx="59" cy="75" rx="2" ry="1.985981308411215" fill="#ffffff" stroke="none" pointer-events="none"/><ellipse cx="51" cy="75" rx="2" ry="1.985981308411215" fill="#ffffff" stroke="none" pointer-events="none"/><ellipse cx="42" cy="75" rx="2" ry="1.985981308411215" fill="#ffffff" stroke="none" pointer-events="none"/><ellipse cx="34" cy="75" rx="2" ry="1.985981308411215" fill="#ffffff" stroke="none" pointer-events="none"/><ellipse cx="25" cy="75" rx="2" ry="1.985981308411215" fill="#ffffff" stroke="none" pointer-events="none"/><ellipse cx="17" cy="75" rx="2" ry="1.985981308411215" fill="#ffffff" stroke="none" pointer-events="none"/><ellipse cx="8" cy="75" rx="2" ry="1.985981308411215" fill="#ffffff" stroke="none" pointer-events="none"/><path d="M 5 65.15 L 11 65.15 L 11 68.13 L 9 68.13 L 9 69.13 L 7 69.13 L 7 68.13 L 5 68.13 Z M 13.5 65.15 L 19.5 65.15 L 19.5 68.13 L 17.5 68.13 L 17.5 69.13 L 15.5 69.13 L 15.5 68.13 L 13.5 68.13 Z M 22 65.15 L 28 65.15 L 28 68.13 L 26 68.13 L 26 69.13 L 24 69.13 L 24 68.13 L 22 68.13 Z M 30.5 65.15 L 36.5 65.15 L 36.5 68.13 L 34.5 68.13 L 34.5 69.13 L 32.5 69.13 L 32.5 68.13 L 30.5 68.13 Z M 39 65.15 L 45 65.15 L 45 68.13 L 43 68.13 L 43 69.13 L 41 69.13 L 41 68.13 L 39 68.13 Z M 47.5 65.15 L 53.5 65.15 L 53.5 68.13 L 51.5 68.13 L 51.5 69.13 L 49.5 69.13 L 49.5 68.13 L 47.5 68.13 Z M 56 65.15 L 62 65.15 L 62 68.13 L 60 68.13 L 60 69.13 L 58 69.13 L 58 68.13 L 56 68.13 Z M 64.5 65.15 L 70.5 65.15 L 70.5 68.13 L 68.5 68.13 L 68.5 69.13 L 66.5 69.13 L 66.5 68.13 L 64.5 68.13 Z" fill="#ffffff" stroke="none" pointer-events="none"/><rect x="2" y="2" width="0" height="0" fill="none" stroke="#6881b3" stroke-width="1.99" pointer-events="none"/><path d="M 92 68.63 L 94 70.62 L 92 72.6 M 85 70.62 L 94 70.62" fill="none" stroke="#6881b3" stroke-width="1.99" stroke-miterlimit="10" pointer-events="none"/><path d="M 75.8 7.86 C 78 11.17 78 15.47 75.8 18.78 L 74.3 17.79 C 75.97 15.18 75.97 11.85 74.3 9.25 Z M 79.8 4.88 C 83.79 9.92 83.79 17.02 79.8 22.06 L 78.3 20.87 C 81.7 16.55 81.7 10.49 78.3 6.17 Z M 83.8 2 C 89.83 8.47 89.83 18.47 83.8 24.94 L 82.3 23.75 C 87.82 17.99 87.82 8.95 82.3 3.19 Z M 65.8 7.86 C 63.6 11.17 63.6 15.47 65.8 18.78 L 67.3 17.79 C 65.63 15.18 65.63 11.85 67.3 9.25 Z M 61.8 4.88 C 57.76 9.94 57.76 17.1 61.8 22.16 L 63.3 20.77 C 60 16.49 60 10.55 63.3 6.27 Z M 57.8 2.1 C 51.83 8.56 51.83 18.48 57.8 24.94 L 59.3 23.75 C 53.84 18.01 53.84 9.03 59.3 3.29 Z" fill="#cccccc" stroke="#6881b3" stroke-width="1.99" stroke-miterlimit="10" pointer-events="none"/></g></svg>