<!DOCTYPE svg PUBLIC "-//W3C//DTD SVG 1.1//EN" "http://www.w3.org/Graphics/SVG/1.1/DTD/svg11.dtd">
<svg xmlns="http://www.w3.org/2000/svg" xmlns:xlink="http://www.w3.org/1999/xlink" width="304px" height="214px" version="1.1" content="%3CmxGraphModel%20dx%3D%221434%22%20dy%3D%22769%22%20grid%3D%221%22%20gridSize%3D%2210%22%20guides%3D%221%22%20tooltips%3D%221%22%20connect%3D%221%22%20arrows%3D%221%22%20fold%3D%221%22%20page%3D%221%22%20pageScale%3D%221%22%20pageWidth%3D%221169%22%20pageHeight%3D%22826%22%20background%3D%22%23ffffff%22%20math%3D%220%22%3E%3Croot%3E%3CmxCell%20id%3D%220%22%2F%3E%3CmxCell%20id%3D%221%22%20parent%3D%220%22%2F%3E%3CmxCell%20id%3D%222%22%20value%3D%22%22%20style%3D%22fontColor%3D%230066CC%3BverticalAlign%3Dtop%3BverticalLabelPosition%3Dbottom%3BlabelPosition%3Dcenter%3Balign%3Dcenter%3Bhtml%3D1%3BfillColor%3D%23CCCCCC%3BstrokeColor%3D%236881B3%3BgradientColor%3Dnone%3BgradientDirection%3Dnorth%3BstrokeWidth%3D2%3Bshape%3Dmxgraph.networks.pc%3B%22%20vertex%3D%221%22%20parent%3D%221%22%3E%3CmxGeometry%20x%3D%2234%22%20y%3D%22209%22%20width%3D%22300%22%20height%3D%22210%22%20as%3D%22geometry%22%2F%3E%3C%2FmxCell%3E%3C%2Froot%3E%3C%2FmxGraphModel%3E"><defs/><g transform="translate(0.5,0.5)"><rect x="2" y="2" width="90" height="180" rx="6" ry="6" fill="#cccccc" stroke="#6881b3" stroke-width="6" pointer-events="none"/><path d="M 2 32 L 92 32 M 2 92 L 92 92" fill="none" stroke="#6881b3" stroke-width="6" stroke-linejoin="round" stroke-miterlimit="10" pointer-events="none"/><rect x="62" y="17" width="240" height="135" fill="#cccccc" stroke="#6881b3" stroke-width="6" pointer-events="none"/><rect x="152" y="152" width="60" height="30" fill="#cccccc" stroke="#6881b3" stroke-width="6" pointer-events="none"/><path d="M 107 179 L 257 179 L 287 212 L 77 212 Z" fill="#cccccc" stroke="#6881b3" stroke-width="6" stroke-linejoin="round" stroke-miterlimit="10" pointer-events="none"/><path d="M 149 204.5 L 203 204.5 M 110 195.5 L 227 195.5 M 116 186.5 L 224 186.5 M 233 186.5 L 254 186.5 M 239 195.5 L 260 195.5 M 245 204.5 L 266 204.5" fill="none" stroke="#6881b3" stroke-width="6" stroke-linejoin="round" stroke-miterlimit="10" pointer-events="none"/><rect x="71" y="26" width="219" height="117" fill="#ffffff" stroke="none" pointer-events="none"/><ellipse cx="17" cy="107" rx="6" ry="6" fill="#ffffff" stroke="none" pointer-events="none"/></g></svg>