<!DOCTYPE svg PUBLIC "-//W3C//DTD SVG 1.1//EN" "http://www.w3.org/Graphics/SVG/1.1/DTD/svg11.dtd">
<svg xmlns="http://www.w3.org/2000/svg" xmlns:xlink="http://www.w3.org/1999/xlink" width="724px" height="404px" version="1.1" content="%3CmxGraphModel%20dx%3D%221434%22%20dy%3D%22769%22%20grid%3D%221%22%20gridSize%3D%2210%22%20guides%3D%221%22%20tooltips%3D%221%22%20connect%3D%221%22%20arrows%3D%221%22%20fold%3D%221%22%20page%3D%221%22%20pageScale%3D%221%22%20pageWidth%3D%221169%22%20pageHeight%3D%22826%22%20background%3D%22%23ffffff%22%20math%3D%220%22%3E%3Croot%3E%3CmxCell%20id%3D%220%22%2F%3E%3CmxCell%20id%3D%221%22%20parent%3D%220%22%2F%3E%3CmxCell%20id%3D%222%22%20value%3D%22%22%20style%3D%22html%3D1%3BfillColor%3D%23CCCCCC%3BstrokeColor%3D%236881B3%3BgradientColor%3Dnone%3BgradientDirection%3Dnorth%3BstrokeWidth%3D2%3Bshape%3Dmxgraph.networks.cloud%3BfontColor%3D%23ffffff%3Baspect%3Dfixed%3B%22%20vertex%3D%221%22%20parent%3D%221%22%3E%3CmxGeometry%20x%3D%22150%22%20y%3D%22130%22%20width%3D%22720%22%20height%3D%22400%22%20as%3D%22geometry%22%2F%3E%3C%2FmxCell%3E%3CmxCell%20id%3D%223%22%20value%3D%22%22%20style%3D%22fontColor%3D%230066CC%3BverticalAlign%3Dtop%3BverticalLabelPosition%3Dbottom%3BlabelPosition%3Dcenter%3Balign%3Dcenter%3Bhtml%3D1%3BfillColor%3D%23CCCCCC%3BstrokeColor%3D%236881B3%3BgradientColor%3Dnone%3BgradientDirection%3Dnorth%3BstrokeWidth%3D2%3Bshape%3Dmxgraph.networks.wireless_hub%3B%22%20vertex%3D%221%22%20parent%3D%221%22%3E%3CmxGeometry%20x%3D%22280%22%20y%3D%22350%22%20width%3D%22150%22%20height%3D%22127%22%20as%3D%22geometry%22%2F%3E%3C%2FmxCell%3E%3CmxCell%20id%3D%224%22%20value%3D%22%22%20style%3D%22fontColor%3D%230066CC%3BverticalAlign%3Dtop%3BverticalLabelPosition%3Dbottom%3BlabelPosition%3Dcenter%3Balign%3Dcenter%3Bhtml%3D1%3BfillColor%3D%23CCCCCC%3BstrokeColor%3D%236881B3%3BgradientColor%3Dnone%3BgradientDirection%3Dnorth%3BstrokeWidth%3D2%3Bshape%3Dmxgraph.networks.rack%3B%22%20vertex%3D%221%22%20parent%3D%221%22%3E%3CmxGeometry%20x%3D%22500%22%20y%3D%22277%22%20width%3D%22100%22%20height%3D%22200%22%20as%3D%22geometry%22%2F%3E%3C%2FmxCell%3E%3CmxCell%20id%3D%225%22%20value%3D%22%22%20style%3D%22fontColor%3D%230066CC%3BverticalAlign%3Dtop%3BverticalLabelPosition%3Dbottom%3BlabelPosition%3Dcenter%3Balign%3Dcenter%3Bhtml%3D1%3BfillColor%3D%23CCCCCC%3BstrokeColor%3D%236881B3%3BgradientColor%3Dnone%3BgradientDirection%3Dnorth%3BstrokeWidth%3D2%3Bshape%3Dmxgraph.networks.rack%3B%22%20vertex%3D%221%22%20parent%3D%221%22%3E%3CmxGeometry%20x%3D%22623%22%20y%3D%22277%22%20width%3D%22100%22%20height%3D%22200%22%20as%3D%22geometry%22%2F%3E%3C%2FmxCell%3E%3C%2Froot%3E%3C%2FmxGraphModel%3E"><defs/><g transform="translate(0.5,0.5)"><path d="M 629.6 402 C 683.57 395.17 722.07 343.48 715.59 286.56 C 709.11 229.64 660.11 189.03 606.14 195.86 C 605.54 110.83 549.03 37.65 470.2 19.83 C 391.37 2.01 311.39 44.34 277.8 121.65 C 252.92 91.63 213.38 80.3 177.52 92.91 C 141.65 105.52 116.47 139.6 113.64 179.37 C 55.35 177.09 6.35 225.08 4.19 286.56 C 2.03 348.04 47.53 399.72 105.82 402 Z" fill="#cccccc" stroke="#6881b3" stroke-width="15.64" stroke-miterlimit="10" pointer-events="none"/><rect x="132" y="305.97" width="150" height="37.09" rx="7.42" ry="7.42" fill="#cccccc" stroke="#6881b3" stroke-width="2.97" pointer-events="none"/><rect x="147" y="343.07" width="120" height="5.93" fill="#cccccc" stroke="#6881b3" stroke-width="2.97" pointer-events="none"/><path d="M 232.5 305.97 L 233.25 239.21 C 233.67 238.59 234.37 238.21 235.13 238.21 C 235.88 238.21 236.58 238.59 237 239.21 L 237.75 305.97 Z" fill="#cccccc" stroke="#6881b3" stroke-width="2.97" stroke-miterlimit="10" pointer-events="none"/><ellipse cx="264" cy="325" rx="12" ry="11.869158878504674" fill="#ffffff" stroke="none" pointer-events="none"/><ellipse cx="245" cy="313" rx="3" ry="2.9672897196261685" fill="#ffffff" stroke="none" pointer-events="none"/><ellipse cx="245" cy="336" rx="3" ry="2.9672897196261685" fill="#ffffff" stroke="none" pointer-events="none"/><ellipse cx="245" cy="325" rx="3" ry="2.9672897196261685" fill="#ffffff" stroke="none" pointer-events="none"/><ellipse cx="230" cy="331" rx="3" ry="2.9672897196261685" fill="#ffffff" stroke="none" pointer-events="none"/><ellipse cx="218" cy="331" rx="3" ry="2.9672897196261685" fill="#ffffff" stroke="none" pointer-events="none"/><ellipse cx="205" cy="331" rx="3" ry="2.9672897196261685" fill="#ffffff" stroke="none" pointer-events="none"/><ellipse cx="192" cy="331" rx="3" ry="2.9672897196261685" fill="#ffffff" stroke="none" pointer-events="none"/><ellipse cx="179" cy="331" rx="3" ry="2.9672897196261685" fill="#ffffff" stroke="none" pointer-events="none"/><ellipse cx="167" cy="331" rx="3" ry="2.9672897196261685" fill="#ffffff" stroke="none" pointer-events="none"/><ellipse cx="154" cy="331" rx="3" ry="2.9672897196261685" fill="#ffffff" stroke="none" pointer-events="none"/><ellipse cx="141" cy="331" rx="3" ry="2.9672897196261685" fill="#ffffff" stroke="none" pointer-events="none"/><path d="M 136.5 316.36 L 145.5 316.36 L 145.5 320.81 L 142.5 320.81 L 142.5 322.29 L 139.5 322.29 L 139.5 320.81 L 136.5 320.81 Z M 149.25 316.36 L 158.25 316.36 L 158.25 320.81 L 155.25 320.81 L 155.25 322.29 L 152.25 322.29 L 152.25 320.81 L 149.25 320.81 Z M 162 316.36 L 171 316.36 L 171 320.81 L 168 320.81 L 168 322.29 L 165 322.29 L 165 320.81 L 162 320.81 Z M 174.75 316.36 L 183.75 316.36 L 183.75 320.81 L 180.75 320.81 L 180.75 322.29 L 177.75 322.29 L 177.75 320.81 L 174.75 320.81 Z M 187.5 316.36 L 196.5 316.36 L 196.5 320.81 L 193.5 320.81 L 193.5 322.29 L 190.5 322.29 L 190.5 320.81 L 187.5 320.81 Z M 200.25 316.36 L 209.25 316.36 L 209.25 320.81 L 206.25 320.81 L 206.25 322.29 L 203.25 322.29 L 203.25 320.81 L 200.25 320.81 Z M 213 316.36 L 222 316.36 L 222 320.81 L 219 320.81 L 219 322.29 L 216 322.29 L 216 320.81 L 213 320.81 Z M 225.75 316.36 L 234.75 316.36 L 234.75 320.81 L 231.75 320.81 L 231.75 322.29 L 228.75 322.29 L 228.75 320.81 L 225.75 320.81 Z" fill="#ffffff" stroke="none" pointer-events="none"/><rect x="132" y="222" width="0" height="0" fill="none" stroke="#6881b3" stroke-width="2.97" pointer-events="none"/><path d="M 267 321.55 L 270 324.52 L 267 327.49 M 256.5 324.52 L 270 324.52" fill="none" stroke="#6881b3" stroke-width="2.97" stroke-miterlimit="10" pointer-events="none"/><path d="M 242.7 230.75 C 246 235.7 246 242.12 242.7 247.07 L 240.45 245.59 C 242.96 241.7 242.96 236.72 240.45 232.83 Z M 248.7 226.3 C 254.68 233.83 254.68 244.44 248.7 251.97 L 246.45 250.19 C 251.56 243.74 251.56 234.68 246.45 228.23 Z M 254.7 222 C 263.75 231.67 263.75 246.6 254.7 256.27 L 252.45 254.49 C 260.74 245.89 260.74 232.38 252.45 223.78 Z M 227.7 230.75 C 224.4 235.7 224.4 242.12 227.7 247.07 L 229.95 245.59 C 227.44 241.7 227.44 236.72 229.95 232.83 Z M 221.7 226.3 C 215.64 233.86 215.64 244.56 221.7 252.12 L 223.95 250.04 C 219 243.65 219 234.77 223.95 228.38 Z M 215.7 222.15 C 206.74 231.8 206.74 246.62 215.7 256.27 L 217.95 254.49 C 209.76 245.91 209.76 232.51 217.95 223.93 Z" fill="#cccccc" stroke="#6881b3" stroke-width="2.97" stroke-miterlimit="10" pointer-events="none"/><rect x="352" y="149" width="100" height="200" fill="#cccccc" stroke="#6881b3" stroke-width="4" pointer-events="none"/><rect x="358" y="155" width="88" height="188" fill="none" stroke="#6881b3" stroke-width="4" pointer-events="none"/><path d="M 358 173 L 446 173 M 358 191 L 446 191 M 358 209 L 446 209 M 358 227 L 446 227 M 358 245 L 446 245 M 358 281 L 446 281 M 358 299 L 446 299 M 358 335 L 446 335" fill="#cccccc" stroke="#6881b3" stroke-width="4" stroke-miterlimit="10" pointer-events="none"/><rect x="366" y="161" width="6" height="4" fill="#ffffff" stroke="none" pointer-events="none"/><rect x="376" y="161" width="6" height="4" fill="#ffffff" stroke="none" pointer-events="none"/><rect x="386" y="161" width="6" height="4" fill="#ffffff" stroke="none" pointer-events="none"/><ellipse cx="434" cy="164" rx="3" ry="3" fill="#ffffff" stroke="none" pointer-events="none"/><rect x="366" y="179" width="6" height="4" fill="#ffffff" stroke="none" pointer-events="none"/><rect x="376" y="179" width="6" height="4" fill="#ffffff" stroke="none" pointer-events="none"/><rect x="386" y="179" width="6" height="4" fill="#ffffff" stroke="none" pointer-events="none"/><ellipse cx="434" cy="182" rx="3" ry="3" fill="#ffffff" stroke="none" pointer-events="none"/><rect x="366" y="197" width="6" height="4" fill="#ffffff" stroke="none" pointer-events="none"/><rect x="376" y="197" width="6" height="4" fill="#ffffff" stroke="none" pointer-events="none"/><rect x="386" y="197" width="6" height="4" fill="#ffffff" stroke="none" pointer-events="none"/><ellipse cx="434" cy="200" rx="3" ry="3" fill="#ffffff" stroke="none" pointer-events="none"/><rect x="366" y="215" width="6" height="4" fill="#ffffff" stroke="none" pointer-events="none"/><rect x="376" y="215" width="6" height="4" fill="#ffffff" stroke="none" pointer-events="none"/><rect x="386" y="215" width="6" height="4" fill="#ffffff" stroke="none" pointer-events="none"/><ellipse cx="434" cy="218" rx="3" ry="3" fill="#ffffff" stroke="none" pointer-events="none"/><rect x="366" y="233" width="6" height="4" fill="#ffffff" stroke="none" pointer-events="none"/><rect x="376" y="233" width="6" height="4" fill="#ffffff" stroke="none" pointer-events="none"/><rect x="386" y="233" width="6" height="4" fill="#ffffff" stroke="none" pointer-events="none"/><ellipse cx="434" cy="236" rx="3" ry="3" fill="#ffffff" stroke="none" pointer-events="none"/><rect x="366" y="251" width="6" height="24" fill="#ffffff" stroke="none" pointer-events="none"/><rect x="376" y="251" width="6" height="24" fill="#ffffff" stroke="none" pointer-events="none"/><rect x="386" y="251" width="6" height="24" fill="#ffffff" stroke="none" pointer-events="none"/><ellipse cx="434" cy="254" rx="3" ry="3" fill="#ffffff" stroke="none" pointer-events="none"/><rect x="366" y="287" width="6" height="4" fill="#ffffff" stroke="none" pointer-events="none"/><rect x="376" y="287" width="6" height="4" fill="#ffffff" stroke="none" pointer-events="none"/><rect x="386" y="287" width="6" height="4" fill="#ffffff" stroke="none" pointer-events="none"/><ellipse cx="434" cy="290" rx="3" ry="3" fill="#ffffff" stroke="none" pointer-events="none"/><rect x="366" y="305" width="6" height="24" fill="#ffffff" stroke="none" pointer-events="none"/><rect x="376" y="305" width="6" height="24" fill="#ffffff" stroke="none" pointer-events="none"/><rect x="386" y="305" width="6" height="24" fill="#ffffff" stroke="none" pointer-events="none"/><ellipse cx="434" cy="308" rx="3" ry="3" fill="#ffffff" stroke="none" pointer-events="none"/><rect x="396" y="251" width="6" height="24" fill="#ffffff" stroke="none" pointer-events="none"/><rect x="406" y="251" width="6" height="24" fill="#ffffff" stroke="none" pointer-events="none"/><rect x="396" y="305" width="6" height="24" fill="#ffffff" stroke="none" pointer-events="none"/><rect x="406" y="305" width="6" height="24" fill="#ffffff" stroke="none" pointer-events="none"/><rect x="475" y="149" width="100" height="200" fill="#cccccc" stroke="#6881b3" stroke-width="4" pointer-events="none"/><rect x="481" y="155" width="88" height="188" fill="none" stroke="#6881b3" stroke-width="4" pointer-events="none"/><path d="M 481 173 L 569 173 M 481 191 L 569 191 M 481 209 L 569 209 M 481 227 L 569 227 M 481 245 L 569 245 M 481 281 L 569 281 M 481 299 L 569 299 M 481 335 L 569 335" fill="#cccccc" stroke="#6881b3" stroke-width="4" stroke-miterlimit="10" pointer-events="none"/><rect x="489" y="161" width="6" height="4" fill="#ffffff" stroke="none" pointer-events="none"/><rect x="499" y="161" width="6" height="4" fill="#ffffff" stroke="none" pointer-events="none"/><rect x="509" y="161" width="6" height="4" fill="#ffffff" stroke="none" pointer-events="none"/><ellipse cx="557" cy="164" rx="3" ry="3" fill="#ffffff" stroke="none" pointer-events="none"/><rect x="489" y="179" width="6" height="4" fill="#ffffff" stroke="none" pointer-events="none"/><rect x="499" y="179" width="6" height="4" fill="#ffffff" stroke="none" pointer-events="none"/><rect x="509" y="179" width="6" height="4" fill="#ffffff" stroke="none" pointer-events="none"/><ellipse cx="557" cy="182" rx="3" ry="3" fill="#ffffff" stroke="none" pointer-events="none"/><rect x="489" y="197" width="6" height="4" fill="#ffffff" stroke="none" pointer-events="none"/><rect x="499" y="197" width="6" height="4" fill="#ffffff" stroke="none" pointer-events="none"/><rect x="509" y="197" width="6" height="4" fill="#ffffff" stroke="none" pointer-events="none"/><ellipse cx="557" cy="200" rx="3" ry="3" fill="#ffffff" stroke="none" pointer-events="none"/><rect x="489" y="215" width="6" height="4" fill="#ffffff" stroke="none" pointer-events="none"/><rect x="499" y="215" width="6" height="4" fill="#ffffff" stroke="none" pointer-events="none"/><rect x="509" y="215" width="6" height="4" fill="#ffffff" stroke="none" pointer-events="none"/><ellipse cx="557" cy="218" rx="3" ry="3" fill="#ffffff" stroke="none" pointer-events="none"/><rect x="489" y="233" width="6" height="4" fill="#ffffff" stroke="none" pointer-events="none"/><rect x="499" y="233" width="6" height="4" fill="#ffffff" stroke="none" pointer-events="none"/><rect x="509" y="233" width="6" height="4" fill="#ffffff" stroke="none" pointer-events="none"/><ellipse cx="557" cy="236" rx="3" ry="3" fill="#ffffff" stroke="none" pointer-events="none"/><rect x="489" y="251" width="6" height="24" fill="#ffffff" stroke="none" pointer-events="none"/><rect x="499" y="251" width="6" height="24" fill="#ffffff" stroke="none" pointer-events="none"/><rect x="509" y="251" width="6" height="24" fill="#ffffff" stroke="none" pointer-events="none"/><ellipse cx="557" cy="254" rx="3" ry="3" fill="#ffffff" stroke="none" pointer-events="none"/><rect x="489" y="287" width="6" height="4" fill="#ffffff" stroke="none" pointer-events="none"/><rect x="499" y="287" width="6" height="4" fill="#ffffff" stroke="none" pointer-events="none"/><rect x="509" y="287" width="6" height="4" fill="#ffffff" stroke="none" pointer-events="none"/><ellipse cx="557" cy="290" rx="3" ry="3" fill="#ffffff" stroke="none" pointer-events="none"/><rect x="489" y="305" width="6" height="24" fill="#ffffff" stroke="none" pointer-events="none"/><rect x="499" y="305" width="6" height="24" fill="#ffffff" stroke="none" pointer-events="none"/><rect x="509" y="305" width="6" height="24" fill="#ffffff" stroke="none" pointer-events="none"/><ellipse cx="557" cy="308" rx="3" ry="3" fill="#ffffff" stroke="none" pointer-events="none"/><rect x="519" y="251" width="6" height="24" fill="#ffffff" stroke="none" pointer-events="none"/><rect x="529" y="251" width="6" height="24" fill="#ffffff" stroke="none" pointer-events="none"/><rect x="519" y="305" width="6" height="24" fill="#ffffff" stroke="none" pointer-events="none"/><rect x="529" y="305" width="6" height="24" fill="#ffffff" stroke="none" pointer-events="none"/></g></svg>