<!DOCTYPE svg PUBLIC "-//W3C//DTD SVG 1.1//EN" "http://www.w3.org/Graphics/SVG/1.1/DTD/svg11.dtd">
<svg xmlns="http://www.w3.org/2000/svg" xmlns:xlink="http://www.w3.org/1999/xlink" width="54px" height="104px" version="1.1" content="%3CmxGraphModel%20dx%3D%221274%22%20dy%3D%22769%22%20grid%3D%221%22%20gridSize%3D%2210%22%20guides%3D%221%22%20tooltips%3D%221%22%20connect%3D%221%22%20arrows%3D%221%22%20fold%3D%221%22%20page%3D%221%22%20pageScale%3D%221%22%20pageWidth%3D%221169%22%20pageHeight%3D%22826%22%20background%3D%22%23ffffff%22%20math%3D%220%22%3E%3Croot%3E%3CmxCell%20id%3D%220%22%2F%3E%3CmxCell%20id%3D%221%22%20parent%3D%220%22%2F%3E%3CmxCell%20id%3D%222%22%20value%3D%22%22%20style%3D%22fontColor%3D%230066CC%3BverticalAlign%3Dtop%3BverticalLabelPosition%3Dbottom%3BlabelPosition%3Dcenter%3Balign%3Dcenter%3Bhtml%3D1%3BfillColor%3D%23CCCCCC%3BstrokeColor%3D%236881B3%3BgradientColor%3Dnone%3BgradientDirection%3Dnorth%3BstrokeWidth%3D2%3Bshape%3Dmxgraph.networks.rack%3B%22%20vertex%3D%221%22%20parent%3D%221%22%3E%3CmxGeometry%20x%3D%22490%22%20y%3D%22194%22%20width%3D%2250%22%20height%3D%22100%22%20as%3D%22geometry%22%2F%3E%3C%2FmxCell%3E%3C%2Froot%3E%3C%2FmxGraphModel%3E"><defs/><g transform="translate(0.5,0.5)"><rect x="2" y="2" width="50" height="100" fill="#cccccc" stroke="#6881b3" stroke-width="2" pointer-events="none"/><rect x="5" y="5" width="44" height="94" fill="none" stroke="#6881b3" stroke-width="2" pointer-events="none"/><path d="M 5 14 L 49 14 M 5 23 L 49 23 M 5 32 L 49 32 M 5 41 L 49 41 M 5 50 L 49 50 M 5 68 L 49 68 M 5 77 L 49 77 M 5 95 L 49 95" fill="#cccccc" stroke="#6881b3" stroke-width="2" stroke-miterlimit="10" pointer-events="none"/><rect x="9" y="8" width="3" height="2" fill="#ffffff" stroke="none" pointer-events="none"/><rect x="14" y="8" width="3" height="2" fill="#ffffff" stroke="none" pointer-events="none"/><rect x="19" y="8" width="3" height="2" fill="#ffffff" stroke="none" pointer-events="none"/><ellipse cx="43" cy="10" rx="1.5" ry="1.5" fill="#ffffff" stroke="none" pointer-events="none"/><rect x="9" y="17" width="3" height="2" fill="#ffffff" stroke="none" pointer-events="none"/><rect x="14" y="17" width="3" height="2" fill="#ffffff" stroke="none" pointer-events="none"/><rect x="19" y="17" width="3" height="2" fill="#ffffff" stroke="none" pointer-events="none"/><ellipse cx="43" cy="19" rx="1.5" ry="1.5" fill="#ffffff" stroke="none" pointer-events="none"/><rect x="9" y="26" width="3" height="2" fill="#ffffff" stroke="none" pointer-events="none"/><rect x="14" y="26" width="3" height="2" fill="#ffffff" stroke="none" pointer-events="none"/><rect x="19" y="26" width="3" height="2" fill="#ffffff" stroke="none" pointer-events="none"/><ellipse cx="43" cy="28" rx="1.5" ry="1.5" fill="#ffffff" stroke="none" pointer-events="none"/><rect x="9" y="35" width="3" height="2" fill="#ffffff" stroke="none" pointer-events="none"/><rect x="14" y="35" width="3" height="2" fill="#ffffff" stroke="none" pointer-events="none"/><rect x="19" y="35" width="3" height="2" fill="#ffffff" stroke="none" pointer-events="none"/><ellipse cx="43" cy="37" rx="1.5" ry="1.5" fill="#ffffff" stroke="none" pointer-events="none"/><rect x="9" y="44" width="3" height="2" fill="#ffffff" stroke="none" pointer-events="none"/><rect x="14" y="44" width="3" height="2" fill="#ffffff" stroke="none" pointer-events="none"/><rect x="19" y="44" width="3" height="2" fill="#ffffff" stroke="none" pointer-events="none"/><ellipse cx="43" cy="46" rx="1.5" ry="1.5" fill="#ffffff" stroke="none" pointer-events="none"/><rect x="9" y="53" width="3" height="12" fill="#ffffff" stroke="none" pointer-events="none"/><rect x="14" y="53" width="3" height="12" fill="#ffffff" stroke="none" pointer-events="none"/><rect x="19" y="53" width="3" height="12" fill="#ffffff" stroke="none" pointer-events="none"/><ellipse cx="43" cy="55" rx="1.5" ry="1.5" fill="#ffffff" stroke="none" pointer-events="none"/><rect x="9" y="71" width="3" height="2" fill="#ffffff" stroke="none" pointer-events="none"/><rect x="14" y="71" width="3" height="2" fill="#ffffff" stroke="none" pointer-events="none"/><rect x="19" y="71" width="3" height="2" fill="#ffffff" stroke="none" pointer-events="none"/><ellipse cx="43" cy="73" rx="1.5" ry="1.5" fill="#ffffff" stroke="none" pointer-events="none"/><rect x="9" y="80" width="3" height="12" fill="#ffffff" stroke="none" pointer-events="none"/><rect x="14" y="80" width="3" height="12" fill="#ffffff" stroke="none" pointer-events="none"/><rect x="19" y="80" width="3" height="12" fill="#ffffff" stroke="none" pointer-events="none"/><ellipse cx="43" cy="82" rx="1.5" ry="1.5" fill="#ffffff" stroke="none" pointer-events="none"/><rect x="24" y="53" width="3" height="12" fill="#ffffff" stroke="none" pointer-events="none"/><rect x="29" y="53" width="3" height="12" fill="#ffffff" stroke="none" pointer-events="none"/><rect x="24" y="80" width="3" height="12" fill="#ffffff" stroke="none" pointer-events="none"/><rect x="29" y="80" width="3" height="12" fill="#ffffff" stroke="none" pointer-events="none"/></g></svg>